<?xml version="1.0" encoding="UTF-8"?>
<svg id="Layer_1" data-name="Layer 1" xmlns="http://www.w3.org/2000/svg" viewBox="0 0 772.9 296.21">
  <defs>
    
  </defs>
  <g>
    <g>
      <path class="cls-1" d="M234.58,153.1v-78.71c0-4.04,2.35-6.25,6.38-6.25h8.08c4.04,0,6.26,2.22,6.26,6.25v32.97h34.14v-32.97c0-4.04,2.22-6.25,6.26-6.25h8.08c4.04,0,6.25,2.22,6.25,6.25v78.71c0,4.04-2.22,6.25-6.25,6.25h-8.08c-4.04,0-6.26-2.22-6.26-6.25v-28.93h-34.14v28.93c0,4.04-2.22,6.25-6.26,6.25h-8.08c-4.04,0-6.38-2.22-6.38-6.25Z"></path>
      <path class="cls-1" d="M323.2,126.13c0-18.89,14.2-35.18,36.75-35.18,19.02,0,34.66,11.47,35.57,32.84.13,3.78-2.48,5.47-6.38,5.47h-46.65c-.26,7.95,7.69,15.64,20.59,15.64,4.82,0,9.77-1.17,14.86-4.04,3.52-1.95,6.38-1.69,8.86,1.3l1.43,1.82c2.61,3.13,2.35,6.65-1.17,9.25-7.69,5.6-16.68,7.56-25.28,7.56-23.98,0-38.57-15.51-38.57-34.66ZM376.62,118.05c-1.83-8.99-9.51-11.86-16.42-11.86s-14.99,3.13-17.2,11.86h33.62Z"></path>
      <path class="cls-1" d="M407.25,153.1v-81.7c0-4.04,2.22-6.25,6.26-6.25h7.56c4.04,0,6.38,2.22,6.38,6.25v81.7c0,4.04-2.34,6.25-6.38,6.25h-7.56c-4.04,0-6.26-2.22-6.26-6.25Z"></path>
      <path class="cls-1" d="M444,153.1v-81.7c0-4.04,2.22-6.25,6.25-6.25h7.56c4.04,0,6.38,2.22,6.38,6.25v81.7c0,4.04-2.34,6.25-6.38,6.25h-7.56c-4.04,0-6.25-2.22-6.25-6.25Z"></path>
      <path class="cls-1" d="M476.32,126.13c0-18.89,14.2-35.18,36.75-35.18,19.02,0,34.66,11.47,35.57,32.84.13,3.78-2.48,5.47-6.38,5.47h-46.65c-.26,7.95,7.69,15.64,20.59,15.64,4.82,0,9.77-1.17,14.86-4.04,3.52-1.95,6.38-1.69,8.86,1.3l1.43,1.82c2.61,3.13,2.35,6.65-1.17,9.25-7.69,5.6-16.68,7.56-25.28,7.56-23.98,0-38.57-15.51-38.57-34.66ZM529.74,118.05c-1.83-8.99-9.51-11.86-16.42-11.86s-14.99,3.13-17.2,11.86h33.62Z"></path>
      <path class="cls-1" d="M560.11,153.1v-54.47c0-4.04,2.22-6.25,6.25-6.25h7.69c4.04,0,6.25,2.22,6.25,6.25v4.43c3.26-7.69,10.43-12.12,20.33-12.12,17.98,0,24.5,14.07,24.5,29.84v32.32c0,4.04-2.35,6.25-6.38,6.25h-7.56c-4.04,0-6.25-2.22-6.25-6.25v-30.88c0-9.38-3.65-14.85-10.55-14.85s-14.07,5.34-14.07,17.85v27.89c0,4.04-2.22,6.25-6.25,6.25h-7.69c-4.04,0-6.25-2.22-6.25-6.25Z"></path>
      <path class="cls-1" d="M638.56,74.01c0-5.99,4.3-10.55,12.12-10.55s12.12,4.56,12.12,10.55-4.69,10.42-12.12,10.42-12.12-4.56-12.12-10.42ZM640.64,153.1v-54.47c0-4.04,2.22-6.25,6.26-6.25h7.56c4.04,0,6.38,2.22,6.38,6.25v54.47c0,4.04-2.34,6.25-6.38,6.25h-7.56c-4.04,0-6.26-2.22-6.26-6.25Z"></path>
      <path class="cls-1" d="M672.96,126.26c0-19.55,14.99-35.31,38.57-35.31,6.38,0,14.07,1.43,21.24,5.6,3.52,2.22,3.65,5.6,1.17,8.86l-2.09,2.61c-2.48,3.13-5.08,3.26-8.86,1.56-4.3-2.08-8.47-2.35-10.29-2.35-11.34,0-19.55,7.69-19.55,18.63s8.21,18.63,19.55,18.63c1.82,0,5.99-.26,10.29-2.35,3.78-1.69,6.52-1.56,8.86,1.56l2.09,2.61c2.48,3.26,1.95,7.04-2.35,9.38-6.65,3.78-13.94,5.08-20.07,5.08-23.32,0-38.57-15.38-38.57-34.53Z"></path>
    </g>
    <g>
      <path class="cls-1" d="M269.8,226.43c0,7.29-6.09,12.06-15.2,12.06h-15.96c-1.7,0-2.64-.94-2.64-2.64v-38.7c0-1.7.94-2.64,2.64-2.64h14.01c8.73,0,15.08,4.4,15.08,11.69,0,4.08-2.26,8.04-7.66,9.61,6.47.82,9.74,5.66,9.74,10.62ZM244.29,201.18v12.31h6.03c6.53,0,9.11-3.2,9.11-6.47,0-3.77-3.2-5.84-7.16-5.84h-7.98ZM261.51,225.93c0-3.39-2.89-6.72-9.74-6.72h-7.48v12.5h10.12c4.27,0,7.1-2.39,7.1-5.78Z"></path>
      <path class="cls-1" d="M276.08,224.8v-15.52c0-1.7,1.01-2.7,2.7-2.7h2.76c1.7,0,2.64,1.01,2.64,2.7v15.14c0,5.47,2.39,7.98,5.72,7.98s8.23-2.45,8.23-10.18v-12.94c0-1.7,1.01-2.7,2.7-2.7h2.76c1.7,0,2.64,1.01,2.64,2.7v26.58c0,1.7-.94,2.64-2.64,2.64h-2.76c-1.7,0-2.7-.94-2.7-2.64v-3.02c-1.44,4.02-5.21,6.34-10.12,6.34-7.79,0-11.94-5.65-11.94-14.39Z"></path>
      <path class="cls-1" d="M313.95,197.16c0-2.64,1.95-4.71,5.09-4.71s5.15,2.07,5.15,4.71-2.07,4.71-5.15,4.71-5.09-2.07-5.09-4.71ZM315.02,235.86v-26.58c0-1.7.94-2.7,2.64-2.7h2.83c1.7,0,2.64,1.01,2.64,2.7v26.58c0,1.7-.94,2.64-2.64,2.64h-2.83c-1.7,0-2.64-.94-2.64-2.64Z"></path>
      <path class="cls-1" d="M332.04,235.86v-40.15c0-1.7.94-2.64,2.64-2.64h2.83c1.7,0,2.64.94,2.64,2.64v40.15c0,1.7-.94,2.64-2.64,2.64h-2.83c-1.7,0-2.64-.94-2.64-2.64Z"></path>
      <path class="cls-1" d="M350.76,228.13v-15.39h-3.52c-.94,0-1.45-.5-1.45-1.45v-3.27c0-.88.5-1.44,1.45-1.44h3.89l1.13-6.85c.19-1.26,1.01-1.88,2.2-1.88h2.2c1.32,0,2.07.75,2.07,2.07v6.66h7.92c.94,0,1.44.57,1.44,1.44v3.27c0,.94-.5,1.45-1.44,1.45h-7.92v15.71c0,2.89,1.44,4.02,3.14,4.02s3.2-1.19,3.2-3.14c0-.31,0-.69-.06-1.13-.13-1.01.19-1.57,1.19-1.57h3.33c.82,0,1.44.31,1.63,1.13.25,1.07.31,2.14.31,2.39,0,5.91-4.15,9.05-10.12,9.05-5.28,0-10.62-2.51-10.62-11.06Z"></path>
      <path class="cls-1" d="M387.81,235.42l14.89-38.76c.57-1.45,1.57-2.14,3.08-2.14h4.08c1.51,0,2.51.69,3.08,2.14l15.08,38.76c.69,1.82-.12,3.08-2.07,3.08h-3.02c-1.57,0-2.58-.69-3.14-2.14l-2.45-6.47h-18.97l-2.45,6.47c-.5,1.45-1.51,2.14-3.02,2.14h-3.02c-1.95,0-2.76-1.26-2.07-3.08ZM415.4,223.29l-7.54-20.42-7.54,20.42h15.08Z"></path>
      <path class="cls-1" d="M433.98,235.86v-26.58c0-1.7.94-2.7,2.64-2.7h2.64c1.7,0,2.64,1.01,2.64,2.7v4.4c1.07-5.47,5.15-7.79,8.42-7.79.25,0,.94.06,1.26.12,1.38.13,1.63,1.26,1.63,2.51v3.14c0,1.63-.75,2.32-1.95,2.14-.57-.12-1.13-.19-1.63-.19-3.02,0-7.54,1.82-7.54,12.25v9.99c0,1.7-1.01,2.64-2.7,2.64h-2.76c-1.7,0-2.64-.94-2.64-2.64Z"></path>
      <path class="cls-1" d="M455.53,222.54c0-9.17,7.48-16.65,17.21-16.65s17.28,7.54,17.28,16.65-7.54,16.65-17.28,16.65-17.21-7.41-17.21-16.65ZM482.17,222.6c0-5.53-4.15-9.93-9.42-9.93s-9.42,4.4-9.42,9.93,4.15,9.8,9.42,9.8,9.42-4.33,9.42-9.8Z"></path>
      <path class="cls-1" d="M495.98,224.8v-15.52c0-1.7,1.01-2.7,2.7-2.7h2.76c1.7,0,2.64,1.01,2.64,2.7v15.14c0,5.47,2.39,7.98,5.72,7.98s8.23-2.45,8.23-10.18v-12.94c0-1.7,1.01-2.7,2.7-2.7h2.76c1.7,0,2.64,1.01,2.64,2.7v26.58c0,1.7-.94,2.64-2.64,2.64h-2.76c-1.7,0-2.7-.94-2.7-2.64v-3.02c-1.44,4.02-5.21,6.34-10.12,6.34-7.79,0-11.94-5.65-11.94-14.39Z"></path>
      <path class="cls-1" d="M534.8,235.86v-26.58c0-1.7.94-2.7,2.64-2.7h2.76c1.7,0,2.7,1.01,2.7,2.7v2.95c1.44-4.02,5.21-6.34,10.11-6.34,7.79,0,11.94,5.65,11.94,14.39v15.58c0,1.7-1.01,2.64-2.7,2.64h-2.76c-1.7,0-2.64-.94-2.64-2.64v-15.2c0-5.47-2.39-7.98-5.72-7.98s-8.23,2.45-8.23,10.24v12.94c0,1.7-1.01,2.64-2.7,2.64h-2.76c-1.7,0-2.64-.94-2.64-2.64Z"></path>
      <path class="cls-1" d="M571.1,222.54c0-9.3,6.28-16.65,15.52-16.65,4.27,0,8.17,1.57,10.81,5.47v-15.64c0-1.7,1.01-2.64,2.7-2.64h2.76c1.7,0,2.64.94,2.64,2.64v40.15c0,1.7-.94,2.64-2.64,2.64h-2.76c-1.7,0-2.7-.94-2.7-2.64v-2.14c-2.64,3.9-6.53,5.47-10.81,5.47-9.23,0-15.52-7.35-15.52-16.65ZM597.62,222.54c-.06-5.72-3.83-9.93-9.42-9.93s-8.98,4.52-8.98,9.93,3.27,9.93,8.98,9.93,9.36-4.21,9.42-9.93Z"></path>
      <path class="cls-1" d="M641.39,235.86v-15.33l-15.33-22.81c-1.19-1.82-.44-3.2,1.76-3.2h3.83c1.44,0,2.45.5,3.2,1.76l10.62,17.15,10.74-17.15c.75-1.26,1.76-1.76,3.2-1.76h3.83c2.14,0,2.95,1.38,1.7,3.2l-15.27,22.74v15.39c0,1.7-.94,2.64-2.64,2.64h-3.02c-1.7,0-2.64-.94-2.64-2.64Z"></path>
      <path class="cls-1" d="M662.81,222.54c0-9.17,7.48-16.65,17.22-16.65s17.28,7.54,17.28,16.65-7.54,16.65-17.28,16.65-17.22-7.41-17.22-16.65ZM689.45,222.6c0-5.53-4.15-9.93-9.42-9.93s-9.42,4.4-9.42,9.93,4.15,9.8,9.42,9.8,9.42-4.33,9.42-9.8Z"></path>
      <path class="cls-1" d="M703.26,224.8v-15.52c0-1.7,1.01-2.7,2.7-2.7h2.76c1.7,0,2.64,1.01,2.64,2.7v15.14c0,5.47,2.39,7.98,5.72,7.98s8.23-2.45,8.23-10.18v-12.94c0-1.7,1.01-2.7,2.7-2.7h2.76c1.7,0,2.64,1.01,2.64,2.7v26.58c0,1.7-.94,2.64-2.64,2.64h-2.76c-1.7,0-2.7-.94-2.7-2.64v-3.02c-1.44,4.02-5.21,6.34-10.12,6.34-7.79,0-11.94-5.65-11.94-14.39Z"></path>
    </g>
  </g>
  <path class="cls-1" d="M60.14,95.02c-3.03-1.93-4.91-5.52-4.27-9.51.6-3.78,3.55-6.92,7.29-7.7,6.11-1.28,11.5,3.35,11.5,9.24,0,3.36-1.76,6.29-4.39,7.96v48.99c0,2.53,2.05,4.59,4.59,4.59h92.76c4.59,0,8.31-3.72,8.31-8.31v-73.43c0-2.39-1.94-4.33-4.33-4.33h-11.11c-2.23,0-4.04,1.81-4.04,4.04v50.18c3.03,1.93,4.91,5.52,4.27,9.51-.6,3.78-3.55,6.91-7.29,7.7-6.11,1.28-11.5-3.35-11.5-9.24,0-3.36,1.76-6.29,4.4-7.96v-50.49c0-2.06-1.67-3.73-3.73-3.73h-11.42c-2.39,0-4.33,1.94-4.33,4.33v63.98h-37.33v-63.98c0-2.39-1.94-4.33-4.33-4.33h-40.43c-2.39,0-4.33,1.94-4.33,4.33v169.58c-.02,3.89,4.28,6.03,6.67,6.03h6.6c3.57,0,6.46-2.46,6.46-6.03V95.02ZM70.26,164.24v74.08c0,2.29,1.86,4.15,4.15,4.15h10.75c2.39,0,4.33-1.94,4.33-4.33v-60.65h37.33v59.78c0,2.39,2.6,5.2,6.88,5.2h5.19c4.08,0,7.38-1.57,7.38-5.65v-44.57c-3.03-1.93-4.91-5.52-4.27-9.51.6-3.78,3.55-6.91,7.29-7.7,6.11-1.28,11.5,3.35,11.5,9.24,0,3.36-1.76,6.29-4.4,7.96v44.25c0,4.13,3.34,5.97,7.47,5.97h5.56c3.64,0,6.49-2.62,6.49-5.01v-69.34c0-5.19-4.21-9.39-9.39-9.39h-90.74c-3.05,0-5.52,2.47-5.52,5.52Z"></path>
</svg>